<svg id="visual" viewBox="0 0 900 600" width="900" height="600" xmlns="http://www.w3.org/2000/svg" xmlns:xlink="http://www.w3.org/1999/xlink" version="1.1"><rect x="0" y="0" width="900" height="600" fill="#002233"></rect><path d="M0 382L21.5 383.7C43 385.3 86 388.7 128.8 404.7C171.7 420.7 214.3 449.3 257.2 471.3C300 493.3 343 508.7 385.8 504.2C428.7 499.7 471.3 475.3 514.2 454.2C557 433 600 415 642.8 409.7C685.7 404.3 728.3 411.7 771.2 412.8C814 414 857 409 878.5 406.5L900 404L900 601L878.5 601C857 601 814 601 771.2 601C728.3 601 685.7 601 642.8 601C600 601 557 601 514.2 601C471.3 601 428.7 601 385.8 601C343 601 300 601 257.2 601C214.3 601 171.7 601 128.8 601C86 601 43 601 21.5 601L0 601Z" fill="#0066FF" stroke-linecap="round" stroke-linejoin="miter"></path></svg>